<svg width="12" height="17" viewBox="0 0 12 17" fill="none" xmlns="http://www.w3.org/2000/svg">
<path d="M6.00008 0.666664C2.77508 0.666664 0.166748 3.275 0.166748 6.5C0.166748 9.975 3.85008 14.7667 5.36675 16.5917C5.70008 16.9917 6.30842 16.9917 6.64175 16.5917C8.15008 14.7667 11.8334 9.975 11.8334 6.5C11.8334 3.275 9.22508 0.666664 6.00008 0.666664ZM6.00008 8.58333C5.44755 8.58333 4.91764 8.36384 4.52694 7.97314C4.13624 7.58244 3.91675 7.05253 3.91675 6.5C3.91675 5.94746 4.13624 5.41756 4.52694 5.02686C4.91764 4.63616 5.44755 4.41666 6.00008 4.41666C6.55262 4.41666 7.08252 4.63616 7.47322 5.02686C7.86392 5.41756 8.08342 5.94746 8.08342 6.5C8.08342 7.05253 7.86392 7.58244 7.47322 7.97314C7.08252 8.36384 6.55262 8.58333 6.00008 8.58333V8.58333Z" fill="#F9423A"/>
</svg>
