<svg width="25" height="25" viewBox="0 0 25 25" fill="none" xmlns="http://www.w3.org/2000/svg">
<circle cx="12.5" cy="12.5" r="12.5" fill="#E2E4E4"/>
<path d="M13 4.66667C9.77496 4.66667 7.16663 7.275 7.16663 10.5C7.16663 13.975 10.85 18.7667 12.3666 20.5917C12.7 20.9917 13.3083 20.9917 13.6416 20.5917C15.15 18.7667 18.8333 13.975 18.8333 10.5C18.8333 7.275 16.225 4.66667 13 4.66667ZM13 12.5833C12.4474 12.5833 11.9175 12.3638 11.5268 11.9731C11.1361 11.5824 10.9166 11.0525 10.9166 10.5C10.9166 9.94747 11.1361 9.41756 11.5268 9.02686C11.9175 8.63616 12.4474 8.41667 13 8.41667C13.5525 8.41667 14.0824 8.63616 14.4731 9.02686C14.8638 9.41756 15.0833 9.94747 15.0833 10.5C15.0833 11.0525 14.8638 11.5824 14.4731 11.9731C14.0824 12.3638 13.5525 12.5833 13 12.5833V12.5833Z" fill="#424749"/>
</svg>
