<svg width="20" height="21" viewBox="0 0 20 21" fill="none" xmlns="http://www.w3.org/2000/svg">
<path d="M12.9583 11.3618C13.5833 11.3618 14.1333 11.0035 14.4167 10.4616L17.4 4.78945C17.4702 4.65698 17.5063 4.50756 17.5045 4.356C17.5028 4.20444 17.4634 4.05598 17.3901 3.92531C17.3169 3.79464 17.2124 3.68629 17.0869 3.61099C16.9615 3.53568 16.8195 3.49603 16.675 3.49595H4.34166L3.55833 1.74799H0.833328V3.49595H2.49999L5.49999 10.1295L4.37499 12.262C3.76666 13.4331 4.56666 14.8577 5.83333 14.8577H15.8333V13.1098H5.83333L6.75 11.3618H12.9583ZM5.13333 5.24392H15.2583L12.9583 9.61384H7.10833L5.13333 5.24392ZM5.83333 15.7317C4.91666 15.7317 4.175 16.5183 4.175 17.4797C4.175 18.4411 4.91666 19.2277 5.83333 19.2277C6.74999 19.2277 7.49999 18.4411 7.49999 17.4797C7.49999 16.5183 6.74999 15.7317 5.83333 15.7317ZM14.1667 15.7317C13.25 15.7317 12.5083 16.5183 12.5083 17.4797C12.5083 18.4411 13.25 19.2277 14.1667 19.2277C15.0833 19.2277 15.8333 18.4411 15.8333 17.4797C15.8333 16.5183 15.0833 15.7317 14.1667 15.7317Z" fill="white"/>
</svg>
